<svg width="34" height="34" viewBox="0 0 34 34" fill="none" xmlns="http://www.w3.org/2000/svg">
<path fill-rule="evenodd" clip-rule="evenodd" d="M11.9125 11.9898C11.9125 10.4258 12.4625 9.1625 13.5711 8.2C14.3102 7.54688 15.4102 7.15156 16.8625 7.00547V5.95703H18.1602V7.00547C19.432 7.12578 20.4461 7.50391 21.1938 8.12266C22.1562 8.91328 22.732 10.0133 22.9211 11.4055L20.6523 11.7492C20.5234 10.8898 20.257 10.2281 19.8445 9.77266C19.4406 9.31719 18.8734 9.00781 18.1602 8.86172V15.1867C19.2602 15.4617 19.9992 15.6852 20.3516 15.8398C21.0305 16.1406 21.5891 16.5016 22.0188 16.9312C22.4484 17.3609 22.7836 17.8766 23.0156 18.4695C23.2477 19.0625 23.368 19.707 23.368 20.3945C23.368 21.9156 22.8781 23.1789 21.9156 24.2016C20.9531 25.2242 19.6984 25.7656 18.1602 25.8344V28.0516H16.8625V25.8602C15.7625 25.7227 14.8773 25.4734 14.1898 25.1211C13.5023 24.7688 12.9094 24.193 12.4109 23.4109C11.9125 22.6203 11.6203 21.6578 11.543 20.5234L13.7516 20.1109C13.9234 21.2883 14.2242 22.1562 14.6539 22.7063C15.2727 23.4883 16.0117 23.918 16.8711 24.0125V17.0344C15.9688 16.8625 15.0492 16.5102 14.1039 15.9859C13.4078 15.5906 12.8664 15.0578 12.4883 14.3617C12.1102 13.6742 11.9211 12.8922 11.9211 12.007L11.9125 11.9898ZM33.1562 17C33.1562 12.5398 31.3516 8.50078 28.4211 5.57891C25.4992 2.65703 21.4602 0.84375 17 0.84375C12.5398 0.84375 8.50078 2.64844 5.57891 5.57891C2.65703 8.50078 0.84375 12.5398 0.84375 17C0.84375 21.4602 2.64844 25.4992 5.57891 28.4211C8.50078 31.343 12.5398 33.1562 17 33.1562C21.4602 33.1562 25.4992 31.3516 28.4211 28.4211C31.343 25.4992 33.1562 21.4602 33.1562 17Z" fill="#0B7572"/>
</svg>
